<svg class="main-svg" xmlns="http://www.w3.org/2000/svg" xmlns:xlink="http://www.w3.org/1999/xlink" width="250" height="250" style="" viewBox="0 0 250 250"><rect x="0" y="0" width="250" height="250" style="fill: rgb(255, 255, 255); fill-opacity: 1;"/><defs id="defs-b1cdad"><g class="clips"/><g class="gradients"/><g class="patterns"/></defs><g class="bglayer"/><g class="layer-below"><g class="imagelayer"/><g class="shapelayer"/></g><g class="cartesianlayer"/><g class="polarlayer"/><g class="smithlayer"/><g class="ternarylayer"/><g class="geolayer"/><g class="funnelarealayer"/><g class="pielayer"/><g class="iciclelayer"/><g class="treemaplayer"/><g class="sunburstlayer"><g class="trace sunburst" stroke-linejoin="round" style="opacity: 1;"><g class="slice cursor-pointer"><path class="surface" d="M125,125L172.5,125A47.5,47.5 0,1,0 135.6808553376143,171.28357515638734L125,125A0,0 0,1,1 125,125Z" style="pointer-events: none; stroke-width: 1; fill: rgb(99, 110, 250); fill-opacity: 1; stroke: rgb(255, 255, 255); stroke-opacity: 1;"/><g class="slicetext"><text data-notex="1" class="slicetext" text-anchor="middle" x="0" y="0" style="font-family: 'Open Sans', verdana, arial, sans-serif; font-size: 12px; fill: rgb(255, 255, 255); fill-opacity: 1; white-space: pre;" transform="translate(116.19982183586126,118.20150775626723)rotate(-51.49732620320856)">Bacteria</text></g></g><g class="slice cursor-pointer"><path class="surface" d="M125,125L135.6808553376143,171.28357515638734A47.5,47.5 0,0,0 172.5,125.00000000000001L125,125A0,0 0,0,1 125,125Z" style="pointer-events: none; stroke-width: 1; fill: rgb(239, 85, 59); fill-opacity: 1; stroke: rgb(255, 255, 255); stroke-opacity: 1;"/><g class="slicetext"><text data-notex="1" class="slicetext" text-anchor="middle" x="0" y="0" style="font-family: 'Open Sans', verdana, arial, sans-serif; font-size: 12px; fill: rgb(68, 68, 68); fill-opacity: 1; white-space: pre;" transform="translate(155.99765696376792,149.86615917344616)rotate(-51.49732620320856)">Eukaryota</text></g></g><g class="slice"><path class="surface" d="M172.5,125L220,125A95,95 0,1,0 75.66917260705067,206.18786528002224L100.33458630352533,165.59393264001113A47.5,47.5 0,1,1 172.5,125Z" style="pointer-events: none; stroke-width: 1; fill: rgb(99, 110, 250); fill-opacity: 1; stroke: rgb(255, 255, 255); stroke-opacity: 1; opacity: 0.7;"/><g class="slicetext"><text data-notex="1" class="slicetext" text-anchor="middle" x="0" y="0" style="font-family: 'Open Sans', verdana, arial, sans-serif; font-size: 12px; fill: rgb(255, 255, 255); fill-opacity: 1; white-space: pre;" transform="translate(97.36287060232982,76.191085740046)rotate(-29.35828877005349)">Actinomycetota</text></g></g><g class="slice"><path class="surface" d="M100.33458630352533,165.59393264001113L75.66917260705067,206.18786528002224A95,95 0,0,0 108.3288131304684,218.52578002006268L116.6644065652342,171.76289001003136A47.5,47.5 0,0,1 100.33458630352533,165.59393264001113Z" style="pointer-events: none; stroke-width: 1; fill: rgb(99, 110, 250); fill-opacity: 1; stroke: rgb(255, 255, 255); stroke-opacity: 1; opacity: 0.7;"/><g class="slicetext"><text data-notex="1" class="slicetext" text-anchor="middle" x="0" y="0" style="font-family: 'Open Sans', verdana, arial, sans-serif; font-size: 12px; fill: rgb(255, 255, 255); fill-opacity: 1; white-space: pre;" transform="translate(103.51731614299425,193.18545787631797)rotate(-69.30481283422455)">Pseudomonadota</text></g></g><g class="slice"><path class="surface" d="M116.6644065652342,171.76289001003136L108.3288131304684,218.52578002006268A95,95 0,0,0 127.39374103066228,219.96983733732583L126.19687051533114,172.4849186686629A47.5,47.5 0,0,1 116.6644065652342,171.76289001003136Z" style="pointer-events: none; stroke-width: 1; fill: rgb(99, 110, 250); fill-opacity: 1; stroke: rgb(255, 255, 255); stroke-opacity: 1; opacity: 0.7;"/><g class="slicetext"><text data-notex="1" class="slicetext" text-anchor="middle" x="0" y="0" style="font-family: 'Open Sans', verdana, arial, sans-serif; font-size: 12px; fill: rgb(255, 255, 255); fill-opacity: 1; white-space: pre;" transform="translate(123.59789315321365,196.47169389712414)rotate(-85.66844919786092)">Cyanobacteriota</text></g></g><g class="slice"><path class="surface" d="M126.19687051533114,172.4849186686629L127.39374103066228,219.96983733732583A95,95 0,0,0 136.938324743121,219.24689067724083L130.96916237156051,172.1234453386204A47.5,47.5 0,0,1 126.19687051533114,172.4849186686629Z" style="pointer-events: none; stroke-width: 1; fill: rgb(99, 110, 250); fill-opacity: 1; stroke: rgb(255, 255, 255); stroke-opacity: 1; opacity: 0.7;"/><g class="slicetext"><text data-notex="1" class="slicetext" text-anchor="middle" x="0" y="0" style="font-family: 'Open Sans', verdana, arial, sans-serif; font-size: 12px; fill: rgb(255, 255, 255); fill-opacity: 1; white-space: pre;" transform="translate(127.28127986873476,208.0788303139889)rotate(85.66844919786104)">Bacillota</text></g></g><g class="slice"><path class="surface" d="M130.96916237156051,172.1234453386204L136.938324743121,219.24689067724083A95,95 0,0,0 143.23998981885183,218.23251992415618L134.1199949094259,171.6162599620781A47.5,47.5 0,0,1 130.96916237156051,172.1234453386204Z" style="pointer-events: none; stroke-width: 1; fill: rgb(99, 110, 250); fill-opacity: 1; stroke: rgb(255, 255, 255); stroke-opacity: 1; opacity: 0.7;"/><g class="slicetext"><text data-notex="1" class="slicetext" text-anchor="middle" x="0" y="0" style="font-family: 'Open Sans', verdana, arial, sans-serif; font-size: 12px; fill: rgb(255, 255, 255); fill-opacity: 1; white-space: pre;" transform="translate(134.21273013755146,207.40248966443863)rotate(80.85561497326205)">Myxococcota</text></g></g><g class="slice"><path class="surface" d="M134.1199949094259,171.6162599620781L143.23998981885183,218.23251992415618A95,95 0,0,0 146.36171067522852,217.56715031277471L135.68085533761428,171.28357515638737A47.5,47.5 0,0,1 134.1199949094259,171.6162599620781Z" style="pointer-events: none; stroke-width: 1; fill: rgb(99, 110, 250); fill-opacity: 1; stroke: rgb(255, 255, 255); stroke-opacity: 1; opacity: 0.7;"/><g class="slicetext"><text data-notex="1" class="slicetext" text-anchor="middle" x="0" y="0" style="font-family: 'Open Sans', verdana, arial, sans-serif; font-size: 12px; fill: rgb(255, 255, 255); fill-opacity: 1; white-space: pre;" transform="translate(139.10134486310056,210.34779908733086)rotate(77.9679144385027)">Actinobacteridae</text></g></g><g class="slice"><path class="surface" d="M135.6808553376143,171.28357515638734L146.3617106752286,217.5671503127747A95,95 0,0,0 218.66251646078263,140.88499323996155L171.8312582303913,132.94249661998077A47.5,47.5 0,0,1 135.6808553376143,171.28357515638734Z" style="pointer-events: none; stroke-width: 1; fill: rgb(239, 85, 59); fill-opacity: 1; stroke: rgb(255, 255, 255); stroke-opacity: 1; opacity: 0.7;"/><g class="slicetext"><text data-notex="1" class="slicetext" text-anchor="middle" x="0" y="0" style="font-family: 'Open Sans', verdana, arial, sans-serif; font-size: 12px; fill: rgb(68, 68, 68); fill-opacity: 1; white-space: pre;" transform="translate(176.68335454532195,177.8785909208043)">Dikarya</text></g></g><g class="slice"><path class="surface" d="M171.8312582303913,132.94249661998077L218.66251646078263,140.88499323996155A95,95 0,0,0 220,125.00000000000003L172.5,125.00000000000001A47.5,47.5 0,0,1 171.8312582303913,132.94249661998077Z" style="pointer-events: none; stroke-width: 1; fill: rgb(239, 85, 59); fill-opacity: 1; stroke: rgb(255, 255, 255); stroke-opacity: 1; opacity: 0.7;"/><g class="slicetext"><text data-notex="1" class="slicetext" text-anchor="middle" x="0" y="0" style="font-family: 'Open Sans', verdana, arial, sans-serif; font-size: 12px; fill: rgb(68, 68, 68); fill-opacity: 1; white-space: pre;" transform="translate(197.73014548438795,135.1378811964781)rotate(4.81283422459893)">Streptophyta</text></g></g></g></g><g class="glimages"/><defs id="topdefs-b1cdad"><g class="clips"/></defs><g class="layer-above"><g class="imagelayer"/><g class="shapelayer"/></g><g class="infolayer"><g class="g-gtitle"/></g></svg>