<svg class="main-svg" xmlns="http://www.w3.org/2000/svg" xmlns:xlink="http://www.w3.org/1999/xlink" width="250" height="250" style="" viewBox="0 0 250 250"><rect x="0" y="0" width="250" height="250" style="fill: rgb(255, 255, 255); fill-opacity: 1;"/><defs id="defs-955b87"><g class="clips"/><g class="gradients"/><g class="patterns"/></defs><g class="bglayer"/><g class="layer-below"><g class="imagelayer"/><g class="shapelayer"/></g><g class="cartesianlayer"/><g class="polarlayer"/><g class="smithlayer"/><g class="ternarylayer"/><g class="geolayer"/><g class="funnelarealayer"/><g class="pielayer"/><g class="iciclelayer"/><g class="treemaplayer"/><g class="sunburstlayer"><g class="trace sunburst" stroke-linejoin="round" style="opacity: 1;"><g class="slice cursor-pointer"><path class="surface" d="M125,125L172.5,125A47.5,47.5 0,1,0 114.43025563707505,171.30907582863662L125,125A0,0 0,1,1 125,125Z" style="pointer-events: none; stroke-width: 1; fill: rgb(99, 110, 250); fill-opacity: 1; stroke: rgb(255, 255, 255); stroke-opacity: 1;"/><g class="slicetext"><text data-notex="1" class="slicetext" text-anchor="middle" x="0" y="0" style="font-family: 'Open Sans', verdana, arial, sans-serif; font-size: 12px; fill: rgb(255, 255, 255); fill-opacity: 1; white-space: pre;" transform="translate(117.80561208428958,115.97852289993926)rotate(-38.571428571428555)">Bacillati</text></g></g><g class="slice cursor-pointer"><path class="surface" d="M125,125L114.43025563707505,171.30907582863662A47.5,47.5 0,0,0 163.9581820933554,152.17554135580306L125,125A0,0 0,0,1 125,125Z" style="pointer-events: none; stroke-width: 1; fill: rgb(239, 85, 59); fill-opacity: 1; stroke: rgb(255, 255, 255); stroke-opacity: 1;"/><g class="slicetext"><text data-notex="1" class="slicetext" text-anchor="middle" x="0" y="0" style="font-family: 'Open Sans', verdana, arial, sans-serif; font-size: 12px; fill: rgb(68, 68, 68); fill-opacity: 1; white-space: pre;" transform="translate(135.98033025256575,157.42302816486415)">Fungi</text></g></g><g class="slice cursor-pointer"><path class="surface" d="M125,125L163.9581820933554,152.17554135580306A47.5,47.5 0,0,0 171.6240599570756,134.0800348633152L125,125A0,0 0,0,1 125,125Z" style="pointer-events: none; stroke-width: 1; fill: rgb(0, 204, 150); fill-opacity: 1; stroke: rgb(255, 255, 255); stroke-opacity: 1;"/><g class="slicetext"><text data-notex="1" class="slicetext" text-anchor="middle" x="0" y="0" style="font-family: 'Open Sans', verdana, arial, sans-serif; font-size: 12px; fill: rgb(68, 68, 68); fill-opacity: 1; white-space: pre;" transform="translate(151.14093430000895,140.41832632824983)rotate(22.959183673469397)">Pseudomonadati</text></g></g><g class="slice cursor-pointer"><path class="surface" d="M125,125L171.6240599570756,134.0800348633152A47.5,47.5 0,0,0 172.5,125.00000000000001L125,125A0,0 0,0,1 125,125Z" style="pointer-events: none; stroke-width: 1; fill: rgb(171, 99, 250); fill-opacity: 1; stroke: rgb(255, 255, 255); stroke-opacity: 1;"/><g class="slicetext"><text data-notex="1" class="slicetext" text-anchor="middle" x="0" y="0" style="font-family: 'Open Sans', verdana, arial, sans-serif; font-size: 12px; fill: rgb(68, 68, 68); fill-opacity: 1; white-space: pre;" transform="translate(160.41656194077012,132.4351624908743)rotate(5.510204081632708)">Viridiplantae</text></g></g><g class="slice"><path class="surface" d="M172.5,125L220,125A95,95 0,1,0 78.38183255962583,207.77527689172194L101.69091627981291,166.38763844586097A47.5,47.5 0,1,1 172.5,125Z" style="pointer-events: none; stroke-width: 1; fill: rgb(99, 110, 250); fill-opacity: 1; stroke: rgb(255, 255, 255); stroke-opacity: 1; opacity: 0.7;"/><g class="slicetext"><text data-notex="1" class="slicetext" text-anchor="middle" x="0" y="0" style="font-family: 'Open Sans', verdana, arial, sans-serif; font-size: 12px; fill: rgb(255, 255, 255); fill-opacity: 1; white-space: pre;" transform="translate(96.55925199100929,76.65493939120361)rotate(-30.306122448979522)">Actinomycetota</text></g></g><g class="slice"><path class="surface" d="M101.69091627981291,166.38763844586097L78.38183255962583,207.77527689172194A95,95 0,0,0 95.06471928775598,215.1602959660135L110.03235964387798,170.08014798300675A47.5,47.5 0,0,1 101.69091627981291,166.38763844586097Z" style="pointer-events: none; stroke-width: 1; fill: rgb(99, 110, 250); fill-opacity: 1; stroke: rgb(255, 255, 255); stroke-opacity: 1; opacity: 0.7;"/><g class="slicetext"><text data-notex="1" class="slicetext" text-anchor="middle" x="0" y="0" style="font-family: 'Open Sans', verdana, arial, sans-serif; font-size: 12px; fill: rgb(255, 255, 255); fill-opacity: 1; white-space: pre;" transform="translate(99.76686801807355,191.88391422843534)rotate(-66.12244897959181)">Cyanobacteriota</text></g></g><g class="slice"><path class="surface" d="M110.03235964387798,170.08014798300675L95.06471928775598,215.1602959660135A95,95 0,0,0 103.86051127415003,217.61815165727322L114.43025563707502,171.3090758286366A47.5,47.5 0,0,1 110.03235964387798,170.08014798300675Z" style="pointer-events: none; stroke-width: 1; fill: rgb(99, 110, 250); fill-opacity: 1; stroke: rgb(255, 255, 255); stroke-opacity: 1; opacity: 0.7;"/><g class="slicetext"><text data-notex="1" class="slicetext" text-anchor="middle" x="0" y="0" style="font-family: 'Open Sans', verdana, arial, sans-serif; font-size: 12px; fill: rgb(255, 255, 255); fill-opacity: 1; white-space: pre;" transform="translate(106.3121719541165,206.7400405201473)rotate(-74.38775510204073)">Bacillota</text></g></g><g class="slice"><path class="surface" d="M114.43025563707505,171.30907582863662L103.86051127415011,217.61815165727324A95,95 0,0,0 202.91636418671078,179.35108271160615L163.9581820933554,152.17554135580306A47.5,47.5 0,0,1 114.43025563707505,171.30907582863662Z" style="pointer-events: none; stroke-width: 1; fill: rgb(239, 85, 59); fill-opacity: 1; stroke: rgb(255, 255, 255); stroke-opacity: 1; opacity: 0.7;"/><g class="slicetext"><text data-notex="1" class="slicetext" text-anchor="middle" x="0" y="0" style="font-family: 'Open Sans', verdana, arial, sans-serif; font-size: 12px; fill: rgb(68, 68, 68); fill-opacity: 1; white-space: pre;" transform="translate(150.51858871639953,195.46288445263139)">Dikarya</text></g></g><g class="slice"><path class="surface" d="M163.9581820933554,152.17554135580306L202.91636418671078,179.35108271160615A95,95 0,0,0 216.89301198870777,149.0971854714032L170.94650599435388,137.04859273570162A47.5,47.5 0,0,1 163.9581820933554,152.17554135580306Z" style="pointer-events: none; stroke-width: 1; fill: rgb(0, 204, 150); fill-opacity: 1; stroke: rgb(255, 255, 255); stroke-opacity: 1; opacity: 0.7;"/><g class="slicetext"><text data-notex="1" class="slicetext" text-anchor="middle" x="0" y="0" style="font-family: 'Open Sans', verdana, arial, sans-serif; font-size: 12px; fill: rgb(68, 68, 68); fill-opacity: 1; white-space: pre;" transform="translate(187.82878246749777,158.43176315431435)rotate(24.79591836734693)">Pseudomonadota</text></g></g><g class="slice"><path class="surface" d="M170.94650599435388,137.04859273570162L216.89301198870777,149.0971854714032A95,95 0,0,0 218.2481199141512,143.1600697266304L171.6240599570756,134.0800348633152A47.5,47.5 0,0,1 170.94650599435388,137.04859273570162Z" style="pointer-events: none; stroke-width: 1; fill: rgb(0, 204, 150); fill-opacity: 1; stroke: rgb(255, 255, 255); stroke-opacity: 1; opacity: 0.7;"/><g class="slicetext"><text data-notex="1" class="slicetext" text-anchor="middle" x="0" y="0" style="font-family: 'Open Sans', verdana, arial, sans-serif; font-size: 12px; fill: rgb(68, 68, 68); fill-opacity: 1; white-space: pre;" transform="translate(205.26079563428365,147.4218703059769)rotate(12.857142857142833)">Myxococcota</text></g></g><g class="slice"><path class="surface" d="M171.6240599570756,134.0800348633152L218.2481199141512,143.1600697266304A95,95 0,0,0 220,125.00000000000003L172.5,125.00000000000001A47.5,47.5 0,0,1 171.6240599570756,134.0800348633152Z" style="pointer-events: none; stroke-width: 1; fill: rgb(171, 99, 250); fill-opacity: 1; stroke: rgb(255, 255, 255); stroke-opacity: 1; opacity: 0.7;"/><g class="slicetext"><text data-notex="1" class="slicetext" text-anchor="middle" x="0" y="0" style="font-family: 'Open Sans', verdana, arial, sans-serif; font-size: 12px; fill: rgb(68, 68, 68); fill-opacity: 1; white-space: pre;" transform="translate(195.99024200115318,135.86691262268977)rotate(5.510204081632708)">Streptophyta</text></g></g></g></g><g class="glimages"/><defs id="topdefs-955b87"><g class="clips"/></defs><g class="layer-above"><g class="imagelayer"/><g class="shapelayer"/></g><g class="infolayer"><g class="g-gtitle"/></g></svg>